<?xml version="1.0" encoding="UTF-8"?>
<svg version="1.1" xmlns="http://www.w3.org/2000/svg" width="1254" height="1254">
<path d="M0 0 C413.82 0 827.64 0 1254 0 C1254 413.82 1254 827.64 1254 1254 C840.18 1254 426.36 1254 0 1254 C0 840.18 0 426.36 0 0 Z " fill="#FDFDFD" transform="translate(0,0)"/>
<path d="M0 0 C0.97892222 -0.01057194 1.95784443 -0.02114388 2.96643096 -0.03203619 C4.03430931 -0.0181541 5.10218766 -0.00427201 6.20242596 0.01003075 C7.34288724 0.00505306 8.48334853 0.00007537 9.65836924 -0.00505316 C13.48916711 -0.01565037 17.31889629 0.00955589 21.14961529 0.03453636 C23.89284009 0.03708655 26.63603927 0.03210889 29.37926006 0.02745628 C36.06502923 0.02063487 42.75047253 0.0403162 49.43617497 0.06861956 C57.23208715 0.10048629 65.02794205 0.10487156 72.82390996 0.1078115 C86.74781667 0.11387927 100.67157801 0.14300539 114.59541607 0.18590355 C128.08109602 0.22741542 141.56670797 0.25581311 155.05244732 0.2679348 C156.29592585 0.26905712 156.29592585 0.26905712 157.56452516 0.27020212 C160.89755102 0.27317705 164.23057691 0.27611432 167.56360285 0.2789884 C181.99573726 0.29176827 196.42785675 0.31547015 210.85997412 0.34062666 C213.18706667 0.34459762 215.51415951 0.34831901 217.84125257 0.35198069 C226.00626259 0.36506894 234.17124607 0.38155099 242.33622799 0.40696509 C245.71031824 0.41745865 249.08438126 0.42609002 252.4584856 0.43153572 C280.6773632 0.47987488 307.78730479 2.31391352 335.16597271 9.61803246 C336.41587994 9.95004662 337.66578716 10.28206078 338.95357037 10.62413597 C345.61008577 12.46432844 351.82428042 14.6201107 358.04097271 17.61803246 C359.43479218 18.22683073 360.83043085 18.83149405 362.22847271 19.43053246 C363.83537951 20.15364051 365.43925482 20.88350232 367.04097271 21.61803246 C368.04644146 22.07564964 369.05191021 22.53326683 370.08784771 23.00475121 C385.47771936 30.32735143 399.5433628 40.0449338 412.04097271 51.61803246 C412.64006451 52.16797874 413.2391563 52.71792503 413.8564024 53.28453636 C441.78886088 79.2094843 460.42660967 116.37294894 462.18355083 154.73082542 C462.62701849 170.51691648 462.1926749 185.34471745 458.04097271 200.61803246 C457.86437115 201.3057473 457.68776958 201.99346214 457.50581646 202.70201683 C448.36501548 237.80946357 424.77374747 266.71802064 393.87691021 285.13756371 C392.47645369 285.94908226 391.0728629 286.75521951 389.66597271 287.55553246 C389.02434185 287.92114281 388.38271099 288.28675316 387.72163677 288.66344261 C383.29006979 291.11029903 378.81351623 292.9301817 374.04097271 294.61803246 C374.04097271 295.27803246 374.04097271 295.93803246 374.04097271 296.61803246 C375.07093365 297.01893089 376.10089458 297.41982933 377.16206646 297.83287621 C393.40185674 304.26525787 408.17304776 311.96420821 422.04097271 322.61803246 C422.93687115 323.28963402 423.83276958 323.96123558 424.75581646 324.65318871 C439.85040255 336.43377544 452.34541281 350.11742415 462.04097271 366.61803246 C462.67470806 367.68537621 462.67470806 367.68537621 463.32124615 368.77428246 C483.35226146 403.01425836 486.7198359 444.05866316 477.29097271 482.18053246 C476.57253573 484.67615564 475.83334395 487.14661798 475.04097271 489.61803246 C474.80926373 490.34313011 474.57755474 491.06822777 474.33882427 491.81529808 C466.18567209 516.72595867 452.3921983 537.12601847 434.04097271 555.61803246 C433.1476524 556.52424339 432.25433208 557.43045433 431.33394146 558.36412621 C412.43214216 576.51101493 388.41846761 587.10075964 364.04097271 595.61803246 C362.82538677 596.05115746 361.60980083 596.48428246 360.35737896 596.93053246 C332.48709355 606.20854684 301.98680129 607.0885869 272.9097327 607.02486551 C269.17251368 607.02003212 265.43534106 607.03272951 261.69813824 607.04288292 C254.4264226 607.05986858 247.15479408 607.06095565 239.8830638 607.05567002 C233.97510915 607.0515971 228.06717989 607.05310838 222.15922642 607.05841827 C221.31242785 607.0591667 220.46562928 607.05991512 219.59317015 607.06068622 C217.87220275 607.0622179 216.15123536 607.06375625 214.43026798 607.06530119 C198.38967981 607.07894681 182.34914079 607.0736396 166.30855381 607.06211597 C151.63788172 607.05214029 136.96733497 607.06521274 122.29668219 607.08905017 C107.18636273 607.11341568 92.07610175 607.1230585 76.96576303 607.11639744 C68.50011941 607.11290618 60.03457268 607.115134 51.56894398 607.13264847 C44.38190106 607.14733629 37.19502373 607.14804823 30.00798417 607.13057756 C26.3433591 607.12204655 22.67903038 607.11997011 19.01442051 607.13522911 C15.04570629 607.15155116 11.07745319 607.13697739 7.10873699 607.1192379 C5.94787942 607.12884291 4.78702186 607.13844791 3.59098679 607.14834398 C2.52889667 607.13852969 1.46680656 607.1287154 0.37253189 607.11860371 C-0.5429846 607.11849637 -1.4585011 607.11838903 -2.40176052 607.11827844 C-6.04903368 606.40480819 -7.52979981 605.46043352 -9.95902729 602.61803246 C-10.70303207 599.35541559 -10.62949678 596.15044196 -10.58823299 592.81623745 C-10.5991338 591.29962272 -10.5991338 591.29962272 -10.61025482 589.75236931 C-10.62862102 586.33661891 -10.61109462 582.92197504 -10.5939455 579.50623131 C-10.59970207 577.04383086 -10.60764004 574.58143469 -10.61758173 572.11904758 C-10.63415683 566.75104354 -10.63507398 561.38337118 -10.62234592 556.01538086 C-10.60347047 548.03314805 -10.61308279 540.05112805 -10.62838746 532.06889677 C-10.65474994 517.81427586 -10.65242076 503.55976682 -10.6379929 489.30513521 C-10.62542804 476.83026413 -10.62212555 464.35543412 -10.62810612 451.88055801 C-10.62848804 451.05390957 -10.62886997 450.22726112 -10.62926347 449.37556273 C-10.6308201 446.02013662 -10.63241209 442.66471053 -10.63406229 439.30928447 C-10.64936679 407.81486842 -10.6354752 376.32052372 -10.6085778 344.82611867 C-10.58485091 316.83118126 -10.58696995 288.83635755 -10.61088276 260.84142113 C-10.63764353 229.4070856 -10.64827932 197.97281316 -10.63282144 166.53846782 C-10.6312178 163.18875278 -10.6296536 159.83903773 -10.62810612 156.48932266 C-10.62771073 155.66450494 -10.62731534 154.83968722 -10.62690798 153.98987502 C-10.62121526 141.52202862 -10.62788197 129.05422774 -10.64050388 116.58638763 C-10.65478141 102.41225021 -10.6512664 88.23824241 -10.62410016 74.06412119 C-10.60938984 66.12661848 -10.60850149 58.1893963 -10.62733104 50.25190072 C-10.639823 44.3344594 -10.62632996 38.41726743 -10.60245816 32.49985444 C-10.5968477 30.09882872 -10.5997705 27.69776568 -10.6118371 25.29676373 C-10.62692861 22.0458536 -10.61156507 18.79649609 -10.58823299 15.5456686 C-10.59993882 14.60215283 -10.61164466 13.65863706 -10.62370521 12.6865299 C-10.55963318 8.25405489 -10.39160063 6.21601151 -7.72964114 2.53618222 C-4.78852525 0.49999058 -3.51809687 -0.00566094 0 0 Z " fill="#FC4E10" transform="translate(339.95902729034424,294.38196754455566)"/>
<path d="M0 0 C35.16663641 -0.1209091 35.16663641 -0.1209091 49.93945312 -0.14648438 C60.12675524 -0.164263 70.31398274 -0.18512702 80.5012207 -0.22631836 C87.92159671 -0.25630768 95.34191199 -0.27559555 102.76234692 -0.28226548 C106.68802391 -0.28616167 110.61352724 -0.29525854 114.53914833 -0.31719017 C118.24176642 -0.33770635 121.94414099 -0.34380361 125.64681053 -0.33932304 C127.63786314 -0.34052881 129.62888985 -0.35659115 131.61987305 -0.3732605 C139.22109857 -0.34735208 145.7939699 0.57139852 153 3 C154.17691406 3.38800781 155.35382813 3.77601563 156.56640625 4.17578125 C176.22103696 11.63275327 190.48790687 24.40639579 199.5234375 43.48828125 C206.24638077 59.47750348 205.6391354 77.60560099 199.3125 93.6875 C192.3603652 110.4034838 180.82930363 124.60940194 163.921875 131.828125 C152.10435612 136.51367239 141.62244312 138.29743058 128.85131836 138.22705078 C127.44114185 138.22648567 126.03096475 138.22680518 124.62078857 138.22793579 C120.81767139 138.2285064 117.014682 138.2167997 113.21159434 138.20278788 C109.2277853 138.19023155 105.24397288 138.18910617 101.26014709 138.18673706 C93.72744252 138.18053664 86.19479643 138.1641454 78.66211754 138.14403808 C68.47527387 138.11743982 58.28841405 138.10669481 48.10154438 138.09503365 C32.0676525 138.07626368 16.03388401 138.03640847 0 138 C0 92.46 0 46.92 0 0 Z " fill="#FDFDFC" transform="translate(473,648)"/>
<path d="M0 0 C30.751875 -0.0928125 30.751875 -0.0928125 62.125 -0.1875 C71.80094482 -0.22846802 71.80094482 -0.22846802 81.67236328 -0.27026367 C89.60717773 -0.28381348 89.60717773 -0.28381348 93.33297729 -0.28633118 C96.58348859 -0.29210414 99.83374915 -0.30895696 103.0841943 -0.32944983 C106.33753463 -0.34565451 109.59086475 -0.34151685 112.84423828 -0.34057617 C113.97427843 -0.3513705 115.10431858 -0.36216482 116.26860237 -0.37328625 C127.44841959 -0.33039873 138.4684676 1.43882671 148.375 6.8125 C149.04781006 7.1643335 149.72062012 7.51616699 150.41381836 7.87866211 C155.30394496 10.49017129 159.8497647 13.30002607 164 17 C164.5878125 17.50789063 165.175625 18.01578125 165.78125 18.5390625 C176.60461094 28.55541845 184.52837298 44.38605673 185.3359375 59.19140625 C185.73555917 78.52694697 180.24477354 95.54657792 167 110 C153.46334831 123.98976137 134.91307539 129.85081512 115.80509949 130.24050903 C113.64505294 130.24621853 111.48495872 130.24123102 109.32495117 130.22705078 C108.11409757 130.22729185 106.90324396 130.22753292 105.65569782 130.2277813 C101.78471007 130.22630342 97.91392148 130.21114125 94.04296875 130.1953125 C91.63366793 130.19236733 89.22436583 130.19032981 86.81506348 130.18920898 C77.93918931 130.17877657 69.06334264 130.15085408 60.1875 130.125 C30.3946875 130.063125 30.3946875 130.063125 0 130 C0 87.1 0 44.2 0 0 Z " fill="#FDFCFC" transform="translate(473,417)"/>
<path d="M0 0 C0.74507812 0.21527344 1.49015625 0.43054688 2.2578125 0.65234375 C22.41384231 7.10395999 38.20496325 23.46976485 47.6875 41.8125 C52.16844693 51.07648017 55.62972816 60.64781641 56 71 C56.0515625 72.26714844 56.103125 73.53429687 56.15625 74.83984375 C56.72320461 95.5006145 50.94659222 116.76855819 36.6875 132.25 C34.82080529 134.19923025 32.91704627 136.09899596 31 138 C30.23042969 138.80308594 29.46085938 139.60617187 28.66796875 140.43359375 C13.40298628 155.43852541 -7.09979696 161.41214431 -28 161.625 C-50.18968693 161.41344421 -67.30288798 154.79305539 -84 140 C-84.67289063 139.42121094 -85.34578125 138.84242188 -86.0390625 138.24609375 C-96.11855459 128.94966977 -102.8239023 116.92850245 -107 104 C-107.350625 103.05253906 -107.70125 102.10507812 -108.0625 101.12890625 C-114.0957551 80.99291736 -110.22129459 56.29160794 -100.4375 38.09375 C-96.35638376 31.36746583 -91.42038377 25.67431166 -86 20 C-85.45988281 19.38511719 -84.91976562 18.77023437 -84.36328125 18.13671875 C-75.78096373 8.73291995 -63.94933481 2.83280551 -52 -1 C-50.69482422 -1.47759766 -50.69482422 -1.47759766 -49.36328125 -1.96484375 C-33.72971174 -6.91737599 -15.34062733 -5.08228607 0 0 Z " fill="#FC4E10" transform="translate(958,551)"/>
<path d="M0 0 C0.66 0.33 1.32 0.66 2 1 C1.67 1.99 1.34 2.98 1 4 C0.0925 4.103125 -0.815 4.20625 -1.75 4.3125 C-4.97488729 4.73829735 -4.97488729 4.73829735 -6.9375 6.5625 C-9.97315103 8.67825678 -12.39947486 8.33338196 -16 8 C-16.66 7.34 -17.32 6.68 -18 6 C-17.45472656 5.90203125 -16.90945313 5.8040625 -16.34765625 5.703125 C-11.11053819 4.66465373 -6.62604179 3.09201028 -1.84765625 0.70703125 C-0.93306641 0.35705078 -0.93306641 0.35705078 0 0 Z " fill="#FA5520" transform="translate(621,539)"/>
<path d="M0 0 C5.70629354 0.42797202 9.41078616 2.84345952 14 6 C13.01 6.66 12.02 7.32 11 8 C9.16399255 6.85845641 7.33125195 5.71165684 5.5 4.5625 C4.4790625 3.92441406 3.458125 3.28632812 2.40625 2.62890625 C1.6121875 2.09136719 0.818125 1.55382812 0 1 C0 0.67 0 0.34 0 0 Z " fill="#FC4E10" transform="translate(740,605)"/>
<path d="M0 0 C-0.33 0.99 -0.66 1.98 -1 3 C-7.27 2.67 -13.54 2.34 -20 2 C-20 1.67 -20 1.34 -20 1 C-6.3667426 -0.14806378 -6.3667426 -0.14806378 0 0 Z " fill="#603C27" transform="translate(945,709)"/>
<path d="M0 0 C2.97 0.33 5.94 0.66 9 1 C9 1.99 9 2.98 9 4 C6.36 3.67 3.72 3.34 1 3 C0.67 2.01 0.34 1.02 0 0 Z " fill="#FC4E10" transform="translate(907,707)"/>
<path d="M0 0 C3.96 0.33 7.92 0.66 12 1 C12 1.33 12 1.66 12 2 C7.38 2.33 2.76 2.66 -2 3 C-1.34 2.67 -0.68 2.34 0 2 C0 1.34 0 0.68 0 0 Z " fill="#FDF5F1" transform="translate(613,292)"/>
<path d="M0 0 C-0.33 0.99 -0.66 1.98 -1 3 C-3.91482778 3.80967438 -5.46113217 4.21845993 -8.3125 3.0625 C-8.869375 2.711875 -9.42625 2.36125 -10 2 C-8.71211992 1.46987262 -7.41953322 0.9511671 -6.125 0.4375 C-5.40570312 0.14746094 -4.68640625 -0.14257812 -3.9453125 -0.44140625 C-2 -1 -2 -1 0 0 Z " fill="#FC4E10" transform="translate(623,540)"/>
<path d="M0 0 C0.66 0.66 1.32 1.32 2 2 C-0.17424117 4.50037734 -1.73045798 5.43628586 -5 6 C-4.75 4.125 -4.75 4.125 -4 2 C-1.9375 0.75 -1.9375 0.75 0 0 Z " fill="#FC4E10" transform="translate(629,535)"/>
<path d="M0 0 C0.99 0.33 1.98 0.66 3 1 C0.94766315 3.2477975 -0.00667261 4.0022242 -3 5 C-3.66 4.34 -4.32 3.68 -5 3 C-2.6875 1.4375 -2.6875 1.4375 0 0 Z " fill="#FC4E10" transform="translate(734,874)"/>
<path d="M0 0 C0.66 0.33 1.32 0.66 2 1 C1.34 2.65 0.68 4.3 0 6 C-0.99 6 -1.98 6 -3 6 C-1.125 1.125 -1.125 1.125 0 0 Z " fill="#FC4E10" transform="translate(333,296)"/>
</svg>
